# This file uses centimeters as units for non-parametric coordinates.

mtllib January_Rock_16.mtl
g default
v -76.447601 80.941322 44.276142
v -54.800373 93.586609 84.042320
v -48.564693 174.808716 67.457886
v 54.341179 0.000009 83.176956
v 25.690853 191.512772 86.923935
v 57.680542 -0.000016 -69.697632
v 25.690853 191.512741 -21.758446
v 3.339350 -0.000022 -103.311699
v -0.000010 166.591370 -25.505455
v -0.000010 0.000009 83.176956
v -0.000010 212.157349 72.163223
v -90.714317 106.078659 -35.602348
v 57.680542 106.078651 -69.697647
v 54.341179 106.078682 83.176941
v -0.000010 106.078682 83.176941
v 3.339350 106.078651 -69.697647
v -102.212357 -0.000002 18.738861
v 54.341179 0.000000 28.835764
v 25.690853 191.512756 32.582748
v -0.000010 212.157349 28.835730
v -0.000010 0.000000 28.835764
v 54.341179 106.078667 28.835747
v -45.558395 212.157349 28.835730
v -100.627892 37.608902 -57.298935
v -68.044952 -0.000018 -81.066811
v -104.608383 -0.000011 -35.845764
v -90.113274 0.000005 57.190113
v -50.446327 0.000012 99.812927
v -22.515379 185.470871 -25.505455
v -89.559593 109.446312 -35.281807
v -24.113758 187.158401 -22.943062
v -90.714317 106.078674 14.448776
v -91.038918 103.083916 18.738844
v -70.264153 133.289871 -30.899841
v -82.118301 131.148117 -23.602898
v -85.175903 83.973213 43.228371
v -55.424072 178.380722 -6.162148
v -54.054913 186.789963 -0.486023
v -45.697315 212.157349 59.831802
v -48.509197 212.157349 31.100254
v -86.374420 54.871567 49.627125
v -60.625263 17.715200 99.534210
v -82.051567 17.336451 76.283394
v -16.849697 212.157349 68.428986
v -17.924627 212.157349 72.163216
v -19.706299 174.949020 76.026413
v -23.012314 166.954407 76.856461
v -29.257690 106.078682 88.818024
v -35.351280 87.608330 91.196007
v -57.815403 15.082461 100.969421
vt 0.541667 0.375000
vt 0.541667 0.488334
vt 0.550699 0.500000
vt 0.588874 0.500000
vt 0.579986 0.375000
vt 0.458333 0.375000
vt 0.458333 0.461264
vt 0.478724 0.481524
vt 0.458333 0.250000
vt 0.458333 0.250000
vt 0.431446 0.250000
vt 0.541667 0.320808
vt 0.501057 0.250000
vt 0.500000 0.375000
vt 0.625000 0.375000
vt 0.625000 0.500000
vt 0.500000 0.500000
vt 0.500000 0.625000
vt 0.625000 0.625000
vt 0.625000 0.750000
vt 0.500000 0.750000
vt 0.500000 0.875000
vt 0.625000 0.875000
vt 0.625000 0.916232
vt 0.582299 0.917236
vt 0.573297 0.923711
vt 0.500000 0.930919
vt 0.250000 0.625000
vt 0.375000 0.625000
vt 0.375000 0.750000
vt 0.250000 0.750000
vt 0.750000 0.625000
vt 0.750000 0.750000
vt 0.419317 0.250000
vt 0.500000 0.250000
vt 0.375000 0.375000
vt 0.375000 0.293446
vt 0.375000 0.875000
vt 0.375000 0.500000
vt 0.168446 0.500000
vt 0.250000 0.500000
vt 0.125000 0.625000
vt 0.125000 0.547426
vt 0.750000 0.500000
vt 0.854797 0.625000
vt 0.861585 0.631533
vt 0.855117 0.714424
vt 0.788759 0.739227
vt 0.791232 0.750000
vt 0.801792 0.500000
vt 0.503968 0.250000
vt 0.529541 0.227887
vt 0.588683 0.314781
vt 0.640923 0.268311
vt 0.643719 0.248782
vt 0.805468 0.505894
vt 0.375000 0.202574
vt 0.375000 0.125000
vt 0.496471 0.125000
vt 0.500000 0.134868
vt 0.478150 0.941368
vt 0.392773 0.974469
vt 0.375000 0.959946
vt 0.165054 0.750000
vt 0.125000 0.679054
vt 0.625000 0.323208
vt 0.583949 0.514807
vt 0.380490 0.375000
vt 0.378717 0.388051
vt 0.386273 0.966215
vt 0.249622 0.812815
vt 0.496150 0.250000
vt 0.474155 0.250000
vt 0.471719 0.250000
vt 0.387990 0.308000
vt 0.395429 0.041378
vt 0.439631 0.078131
vt 0.473934 0.086523
vt 0.375000 0.070946
vt 0.578615 0.353716
vt 0.550710 0.326351
vt 0.604438 0.209501
vt 0.777591 0.450479
vt 0.635836 0.336262
vn -0.279076 0.212632 0.936432
vn -0.279076 0.212632 0.936432
vn -0.279076 0.212632 0.936432
vn -0.279076 0.212632 0.936432
vn -0.279076 0.212632 0.936432
vn -0.279076 0.212632 0.936432
vn -0.279076 0.212632 0.936432
vn -0.279076 0.212632 0.936432
vn -0.279076 0.212632 0.936432
vn -0.279076 0.212632 0.936432
vn -0.041993 0.216206 0.975444
vn -0.041993 0.216206 0.975444
vn -0.041993 0.216206 0.975444
vn -0.953681 0.237781 0.184261
vn -0.953681 0.237781 0.184261
vn -0.953681 0.237781 0.184261
vn -0.953681 0.237781 0.184261
vn -0.953681 0.237781 0.184261
vn -0.118695 0.509327 -0.852348
vn -0.118695 0.509327 -0.852348
vn -0.118695 0.509327 -0.852348
vn -0.118695 0.509327 -0.852348
vn 0.948108 0.317948 0.000000
vn 0.948108 0.317948 0.000000
vn 0.948108 0.317948 0.000000
vn 0.948108 0.317948 0.000000
vn 0.068997 0.128794 0.989268
vn 0.068997 0.128794 0.989268
vn 0.068997 0.128794 0.989268
vn 0.068997 0.128794 0.989268
vn 0.068997 0.128794 0.989268
vn 0.068997 0.128794 0.989268
vn 0.000000 -1.000000 0.000000
vn 0.000000 -1.000000 0.000000
vn 0.000000 -1.000000 0.000000
vn 0.000000 -1.000000 0.000000
vn 0.626394 0.779507 0.000000
vn 0.626394 0.779507 0.000000
vn 0.626394 0.779507 0.000000
vn 0.626394 0.779507 0.000000
vn -0.178722 0.010594 0.983843
vn -0.178722 0.010594 0.983843
vn -0.178722 0.010594 0.983843
vn -0.178722 0.010594 0.983843
vn -0.303842 0.306410 -0.902105
vn -0.303842 0.306410 -0.902105
vn -0.303842 0.306410 -0.902105
vn -0.303842 0.306410 -0.902105
vn -0.303842 0.306410 -0.902105
vn 0.000000 0.000000 1.000000
vn 0.000000 0.000000 1.000000
vn 0.000000 0.000000 1.000000
vn 0.000000 0.000000 1.000000
vn 1.000000 0.000000 0.000000
vn 1.000000 0.000000 0.000000
vn 1.000000 0.000000 0.000000
vn 1.000000 0.000000 0.000000
vn 0.292150 0.149660 -0.944590
vn 0.292150 0.149660 -0.944590
vn 0.292150 0.149660 -0.944590
vn 0.292150 0.149660 -0.944590
vn 0.999426 0.000000 0.033871
vn 0.999426 0.000000 0.033871
vn 0.999426 0.000000 0.033871
vn 0.999426 0.000000 0.033871
vn 0.000000 -1.000000 0.000000
vn 0.000000 -1.000000 0.000000
vn 0.000000 -1.000000 0.000000
vn 0.000000 -1.000000 0.000000
vn 0.000000 -1.000000 0.000000
vn -0.020365 0.922035 -0.386571
vn -0.020365 0.922035 -0.386571
vn -0.020365 0.922035 -0.386571
vn -0.020365 0.922035 -0.386571
vn 0.000000 -1.000000 0.000000
vn 0.000000 -1.000000 0.000000
vn 0.000000 -1.000000 0.000000
vn 0.000000 -1.000000 0.000000
vn 0.944161 0.328838 0.020624
vn 0.944161 0.328838 0.020624
vn 0.944161 0.328838 0.020624
vn 0.944161 0.328838 0.020624
vn 0.000000 1.000000 0.000000
vn 0.000000 1.000000 0.000000
vn 0.000000 1.000000 0.000000
vn 0.000000 1.000000 0.000000
vn 0.000000 1.000000 0.000000
vn 0.000000 1.000000 0.000000
vn 0.000000 1.000000 0.000000
vn -0.510527 0.536620 -0.671864
vn -0.510527 0.536620 -0.671864
vn -0.510527 0.536620 -0.671864
vn -0.510527 0.536620 -0.671864
vn -0.510527 0.536620 -0.671864
vn -0.510527 0.536620 -0.671864
vn -0.510527 0.536620 -0.671864
vn -0.749522 -0.266365 -0.606025
vn -0.749522 -0.266365 -0.606025
vn -0.749522 -0.266365 -0.606025
vn -0.992375 0.120598 0.025441
vn -0.992375 0.120598 0.025441
vn -0.992375 0.120598 0.025441
vn -0.992375 0.120598 0.025441
vn -0.992375 0.120598 0.025441
vn -0.992375 0.120598 0.025441
vn 0.265829 0.026629 0.963652
vn 0.265829 0.026629 0.963652
vn 0.265829 0.026629 0.963652
vn 0.265829 0.026629 0.963652
vn 0.265829 0.026629 0.963652
vn 0.265829 0.026629 0.963652
vn 0.000000 -1.000000 0.000000
vn 0.000000 -1.000000 0.000000
vn 0.000000 -1.000000 0.000000
vn 0.000000 -1.000000 0.000000
vn 0.000000 -1.000000 0.000000
vn -0.185399 0.425709 -0.885663
vn -0.185399 0.425709 -0.885663
vn -0.185399 0.425709 -0.885663
vn -0.185399 0.425709 -0.885663
vn -0.185399 0.425709 -0.885663
vn 0.234422 0.832682 -0.501684
vn 0.234422 0.832682 -0.501684
vn 0.234422 0.832682 -0.501684
vn 0.234422 0.832682 -0.501684
vn 0.234422 0.832682 -0.501684
vn -0.960834 0.017292 -0.276585
vn -0.960834 0.017292 -0.276585
vn -0.960834 0.017292 -0.276585
vn -0.279076 0.212632 0.936432
vn -0.279076 0.212632 0.936432
vn -0.279076 0.212632 0.936432
vn -0.279076 0.212632 0.936432
vn -0.677340 -0.379273 0.630367
vn -0.677340 -0.379273 0.630367
vn -0.677340 -0.379273 0.630367
vn -0.677340 -0.379273 0.630367
vn -0.677340 -0.379273 0.630367
vn -0.945937 0.324351 0.000000
vn -0.945937 0.324351 0.000000
vn -0.945937 0.324351 0.000000
vn -0.945937 0.324351 0.000000
vn 0.207564 0.794677 0.570443
vn 0.207564 0.794677 0.570443
vn 0.207564 0.794677 0.570443
vn 0.207564 0.794677 0.570443
vn 0.207564 0.794677 0.570443
vn 0.207564 0.794677 0.570443
vn -0.807169 0.259450 0.530249
vn -0.807169 0.259450 0.530249
vn -0.807169 0.259450 0.530249
vn -0.807169 0.259450 0.530249
vn -0.807169 0.259450 0.530249
vn -0.947424 0.104575 0.302409
vn -0.947424 0.104575 0.302409
vn -0.947424 0.104575 0.302409
vn -0.947424 0.104575 0.302409
vn -0.947424 0.104575 0.302409
vn -0.947424 0.104575 0.302409
vn -0.990663 0.095853 0.096953
vn -0.990663 0.095853 0.096953
vn -0.990663 0.095853 0.096953
vn -0.990663 0.095853 0.096953
vn -0.990663 0.095853 0.096953
vn -0.405298 0.746202 -0.528126
vn -0.405298 0.746202 -0.528126
vn -0.405298 0.746202 -0.528126
vn -0.405298 0.746202 -0.528126
s off
g January_Rock_16
usemtl Day04_Rock04:initialShadingGroup
f 3/1/1 47/2/2 46/3/3 44/4/4 39/5/5
f 2/6/6 49/7/7 48/8/8 47/2/9 3/1/10
f 1/9/11 36/10/12 41/11/13
f 1/9/14 2/6/15 3/1/16 37/12/17 34/13/18
f 16/14/19 9/15/20 7/16/21 13/17/22
f 22/18/23 19/19/24 5/20/25 14/21/26
f 15/22/27 11/23/28 45/24/29 46/25/30 47/26/31 48/27/32
f 21/28/33 18/29/34 4/30/35 10/31/36
f 19/19/37 20/32/38 11/33/39 5/20/40
f 14/21/41 5/20/42 11/23/43 15/22/44
f 24/34/45 12/35/46 16/14/47 8/36/48 25/37/49
f 4/30/50 14/21/51 15/22/52 10/38/53
f 18/29/54 22/18/55 14/21/56 4/30/57
f 8/36/58 16/14/59 13/17/60 6/39/61
f 6/39/62 13/17/63 22/18/64 18/29/65
f 25/40/66 8/41/67 21/28/68 17/42/69 26/43/70
f 7/16/71 9/44/72 20/32/73 19/19/74
f 8/41/75 6/39/76 18/29/77 21/28/78
f 13/17/79 7/16/80 19/19/81 22/18/82
f 20/32/83 23/45/84 40/46/85 39/47/86 44/48/87 45/49/88 11/33/89
f 29/50/90 30/51/91 35/52/92 34/53/93 37/54/94 38/55/95 31/56/96
f 24/34/97 25/40/98 26/57/99
f 17/58/100 33/59/101 32/60/102 12/35/103 24/34/104 26/57/105
f 10/38/106 15/22/107 48/27/108 49/61/109 50/62/110 28/63/111
f 17/42/112 21/28/113 10/31/114 28/64/115 27/65/116
f 12/35/117 30/51/118 29/66/119 9/15/120 16/14/121
f 9/44/122 29/50/123 31/56/124 23/45/125 20/32/126
f 44/4/127 46/3/128 45/67/129
f 49/7/130 2/6/131 42/68/132 50/69/133
f 50/62/134 42/70/135 43/71/136 27/65/137 28/63/138
f 32/60/139 35/52/140 30/51/141 12/35/142
f 36/10/143 1/9/144 34/13/145 35/72/146 32/73/147 33/74/148
f 42/68/149 2/6/150 1/9/151 41/11/152 43/75/153
f 43/76/154 41/77/155 36/78/156 33/59/157 17/58/158 27/79/159
f 37/12/160 3/1/161 39/5/162 40/80/163 38/81/164
f 38/82/165 40/83/166 23/45/167 31/84/168
